<mxfile host="Electron" agent="Mozilla/5.0 (Windows NT 10.0; Win64; x64) AppleWebKit/537.36 (KHTML, like Gecko) draw.io/26.1.1 Chrome/132.0.6834.210 Electron/34.3.3 Safari/537.36" version="26.1.1">
  <diagram name="PÃ¡gina-1" id="CI0TGAt_iCVYNvfnFSSM">
    <mxGraphModel dx="934" dy="918" grid="1" gridSize="10" guides="1" tooltips="1" connect="1" arrows="1" fold="1" page="1" pageScale="1" pageWidth="1169" pageHeight="827" math="0" shadow="0">
      <root>
        <mxCell id="0" />
        <mxCell id="1" parent="0" />
        <mxCell id="sry-SNhyCbIwti_zoIN3-53" value="&lt;font&gt;Microservicios&lt;/font&gt;" style="whiteSpace=wrap;html=1;dashed=1;dashPattern=8 8;verticalAlign=top;fontSize=15;fontColor=#0A5BFF;strokeColor=#0A5BFF;" vertex="1" parent="1">
          <mxGeometry x="600" y="100" width="400" height="710" as="geometry" />
        </mxCell>
        <mxCell id="-DqIj-vR12_YeNa2x4Za-37" value="&lt;b&gt;StoreFront&lt;/b&gt;&lt;div&gt;&lt;b&gt;Web App&lt;/b&gt;&lt;/div&gt;" style="points=[];aspect=fixed;html=1;align=center;shadow=0;dashed=0;fillColor=#FF6A00;strokeColor=none;shape=mxgraph.alibaba_cloud.webplus_web_app_service;verticalAlign=top;labelPosition=center;verticalLabelPosition=bottom;" parent="1" vertex="1">
          <mxGeometry x="360" y="408" width="94" height="94" as="geometry" />
        </mxCell>
        <mxCell id="-DqIj-vR12_YeNa2x4Za-31" value="" style="ellipse;whiteSpace=wrap;html=1;aspect=fixed;" parent="1" vertex="1">
          <mxGeometry x="428" y="170" width="110" height="110" as="geometry" />
        </mxCell>
        <mxCell id="-DqIj-vR12_YeNa2x4Za-42" value="" style="edgeStyle=orthogonalEdgeStyle;rounded=0;orthogonalLoop=1;jettySize=auto;html=1;" parent="1" source="-DqIj-vR12_YeNa2x4Za-11" target="-DqIj-vR12_YeNa2x4Za-38" edge="1">
          <mxGeometry relative="1" as="geometry">
            <Array as="points">
              <mxPoint x="160" y="456" />
            </Array>
          </mxGeometry>
        </mxCell>
        <mxCell id="-DqIj-vR12_YeNa2x4Za-11" value="Browser" style="fontColor=#0066CC;verticalAlign=top;verticalLabelPosition=bottom;labelPosition=center;align=center;html=1;outlineConnect=0;fillColor=#CCCCCC;strokeColor=#6881B3;gradientColor=none;gradientDirection=north;strokeWidth=2;shape=mxgraph.networks.pc;" parent="1" vertex="1">
          <mxGeometry x="147" y="413" width="100" height="70" as="geometry" />
        </mxCell>
        <mxCell id="-DqIj-vR12_YeNa2x4Za-13" value="&lt;font style=&quot;color: rgb(12, 45, 255);&quot;&gt;Mobile App&lt;/font&gt;" style="outlineConnect=0;dashed=0;verticalLabelPosition=bottom;verticalAlign=top;align=center;html=1;shape=mxgraph.aws3.mobile_client;fillColor=#D2D3D3;gradientColor=none;" parent="1" vertex="1">
          <mxGeometry x="162" y="194.5" width="40.5" height="63" as="geometry" />
        </mxCell>
        <mxCell id="-DqIj-vR12_YeNa2x4Za-22" value="Rest" style="aspect=fixed;sketch=0;html=1;dashed=0;whitespace=wrap;verticalLabelPosition=bottom;verticalAlign=top;fillColor=#2875E2;strokeColor=#ffffff;points=[[0.005,0.63,0],[0.1,0.2,0],[0.9,0.2,0],[0.5,0,0],[0.995,0.63,0],[0.72,0.99,0],[0.5,1,0],[0.28,0.99,0]];shape=mxgraph.kubernetes.icon2;kubernetesLabel=1;prIcon=api" parent="1" vertex="1">
          <mxGeometry x="398" y="201" width="50" height="48" as="geometry" />
        </mxCell>
        <mxCell id="-DqIj-vR12_YeNa2x4Za-29" value="API Gateway" style="sketch=0;html=1;verticalAlign=top;labelPosition=center;verticalLabelPosition=bottom;align=center;spacingTop=-6;fontSize=11;fontStyle=1;fontColor=#999999;shape=image;aspect=fixed;imageAspect=0;image=data:image/svg+xml,PHN2ZyB4bWxucz0iaHR0cDovL3d3dy53My5vcmcvMjAwMC9zdmciIGhlaWdodD0iMzY3LjgxODMyODg1NzQyMTkiIHZpZXdCb3g9IjcuMTA1NDI3MzU3NjAxMDAyZS0xNSAwIDM2Ni40MTAxODY3Njc1NzgxIDM2Ny44MTgzMjg4NTc0MjE5IiBwcmVzZXJ2ZUFzcGVjdFJhdGlvPSJ4TWlkWU1pZCBtZWV0IiB3aWR0aD0iMzY2LjQxMDE5Njc2NzU3OTEiIHZlcnNpb249IjEuMSIgaWQ9InN2Zzk4NyIgem9vbUFuZFBhbj0ibWFnbmlmeSI+JiN4YTsgIDxwYXRoIGQ9Im0gNDguMjUxOTYsMTExLjUzOTA2IGMgLTcuNjE4NjQsMmUtNCAtMTMuNzk0NzIsNi4xNzYyOCAtMTMuNzk0OTMsMTMuNzk0OTIgMi4xZS00LDcuNjE4NjQgNi4xNzYyOSwxMy43OTQ3MiAxMy43OTQ5MywxMy43OTQ5MiBoIDE0NS4xNDY5MiB2IC0yNy41ODk4NCB6IG0gMjM4LjYwODU5LDU3LjQ1MTE3IGggNjUuNzU0NjkgYyA3LjYxODY0LC0yLjFlLTQgMTMuNzk0NzEsLTYuMTc2MjggMTMuNzk0OTIsLTEzLjc5NDkyIC0yLjFlLTQsLTcuNjE4NjQgLTYuMTc2MjgsLTEzLjc5NDcxIC0xMy43OTQ5MiwtMTMuNzk0OTIgSCAyODQuODUwNiBaIE0gMTMuNzk0OTIsMTcwLjk3NDYxIEMgNi4xNzYyODAxLDE3MC45NzQ4MiAyLjEwMDkxOWUtNCwxNzcuMTUwODkgOS4xODk5MjFlLTgsMTg0Ljc2OTUzIC04LjY5OTA4MWUtNCwxOTIuMzg4OTMgNi4xNzU1MjAxLDE5OC41NjYxOSAxMy43OTQ5MiwxOTguNTY2NCBIIDE5My4zOTg4OCBWIDE3MC45NzQ2MSBaIE0gMjg0LjMwNzgsMjI3LjU2NjQgaCA2OC4zMDc0NCBjIDcuNjE4NjQsLTIuMWUtNCAxMy43OTQ3MSwtNi4xNzYyOCAxMy43OTQ5MiwtMTMuNzk0OTIgLTIuMWUtNCwtNy42MTg2NCAtNi4xNzYyOCwtMTMuNzk0NzEgLTEzLjc5NDkyLC0xMy43OTQ5MiBoIC02NS45MjE3OCB6IG0gLTIzNi4wNTU4NCwxLjY5NzI3IGMgLTcuNjE4NjQsMmUtNCAtMTMuNzk0NzIsNi4xNzYyOCAtMTMuNzk0OTMsMTMuNzk0OTIgMi4xZS00LDcuNjE4NjQgNi4xNzYyOSwxMy43OTQ3MiAxMy43OTQ5MywxMy43OTQ5MiBIIDE5My4zOTg4OCBWIDIyOS4yNjM2NyBaIE0gMTg5LjUyMTQ5LDAgYyAtMjQuNTc0MTEsMCAtNDkuMTY3MzcsMjAuMDU1MDcgLTU5LjQzNzUsNzUuMzczMDQgaCAzMC41ODAwNyBjIDQuNjE2MzMsLTI0LjE2MjA2IDE1LjM0ODk2LC00Ny41MjE0OCAyNy44NTM1MiwtNDcuNTIxNDggMTIuMTU4OCwwIDM5LjQ1ODk4LDU3LjQ1MDQ0IDM5LjQ1ODk4LDE2MC40MTQwNiAwLDY5LjkxNTEzIC0xOS41NzgwOSwxNTIuMTE1MjQgLTQxLjE3MTg3LDE1Mi4xMTUyMyAtMTUuMjY4ODEsMmUtNSAtMjEuMjE2NjgsLTI4LjMzMzU2IC0yNS40NDMzNiwtNDYuNzE4NzQgbCAtMzAuNDE0MDYsLTAuMDY4NCBjIDQuMjIwNzQsMjAuNTQwODcgMTYuOTA3NjgsNzQuMjI0NiA1Ny43MTI4OSw3NC4yMjQ2IDUzLjQzNjcyLDAgNjguOTEyMTEsLTExMS45OTMwNSA2OC45MTIxMSwtMTgwLjQ2Mjg5IEMgMjU3LjU3MjI3LDkzLjgwMDc2IDIzNi41ODM0LDAgMTg5LjUyMTQ5LDAgWiIgc3R5bGU9ImNvbG9yOiMwMDAwMDA7b3BhY2l0eToxO2ZpbGw6IzQyODVmNDtmaWxsLW9wYWNpdHk6MTtzdHJva2UtbGluZWNhcDpyb3VuZDstaW5rc2NhcGUtc3Ryb2tlOm5vbmUiLz4mI3hhOzwvc3ZnPg==;" parent="1" vertex="1">
          <mxGeometry x="459" y="190" width="50" height="50" as="geometry" />
        </mxCell>
        <mxCell id="-DqIj-vR12_YeNa2x4Za-38" value="WEB" style="verticalLabelPosition=bottom;sketch=0;aspect=fixed;html=1;verticalAlign=top;strokeColor=none;align=center;outlineConnect=0;shape=mxgraph.citrix.browser;" parent="1" vertex="1">
          <mxGeometry x="340" y="430" width="34.07" height="52" as="geometry" />
        </mxCell>
        <mxCell id="sry-SNhyCbIwti_zoIN3-14" value="" style="edgeStyle=orthogonalEdgeStyle;rounded=0;orthogonalLoop=1;jettySize=auto;html=1;" edge="1" parent="1" source="-DqIj-vR12_YeNa2x4Za-50" target="sry-SNhyCbIwti_zoIN3-6">
          <mxGeometry relative="1" as="geometry" />
        </mxCell>
        <mxCell id="-DqIj-vR12_YeNa2x4Za-50" value="ms-inventario" style="verticalLabelPosition=middle;align=center;labelBackgroundColor=#ffffff;verticalAlign=middle;strokeWidth=2;shadow=0;dashed=0;shape=mxgraph.ios7.icons.cube;fillColor=#d5e8d4;strokeColor=#82b366;gradientColor=#97d077;labelPosition=center;horizontal=1;fontSize=15;" parent="1" vertex="1">
          <mxGeometry x="800" y="274" width="110" height="100" as="geometry" />
        </mxCell>
        <mxCell id="-DqIj-vR12_YeNa2x4Za-51" value="Rest" style="aspect=fixed;sketch=0;html=1;dashed=0;whitespace=wrap;verticalLabelPosition=bottom;verticalAlign=top;fillColor=#fff2cc;strokeColor=#d6b656;points=[[0.005,0.63,0],[0.1,0.2,0],[0.9,0.2,0],[0.5,0,0],[0.995,0.63,0],[0.72,0.99,0],[0.5,1,0],[0.28,0.99,0]];shape=mxgraph.kubernetes.icon2;kubernetesLabel=1;prIcon=api;gradientColor=#ffd966;" parent="1" vertex="1">
          <mxGeometry x="780" y="332" width="50" height="48" as="geometry" />
        </mxCell>
        <mxCell id="sry-SNhyCbIwti_zoIN3-17" value="" style="edgeStyle=orthogonalEdgeStyle;rounded=0;orthogonalLoop=1;jettySize=auto;html=1;" edge="1" parent="1" source="-DqIj-vR12_YeNa2x4Za-54" target="sry-SNhyCbIwti_zoIN3-9">
          <mxGeometry relative="1" as="geometry" />
        </mxCell>
        <mxCell id="-DqIj-vR12_YeNa2x4Za-54" value="ms-ventas" style="verticalLabelPosition=middle;align=center;labelBackgroundColor=#ffffff;verticalAlign=middle;strokeWidth=2;shadow=0;dashed=0;shape=mxgraph.ios7.icons.cube;fillColor=#d5e8d4;strokeColor=#82b366;gradientColor=#97d077;labelPosition=center;horizontal=1;fontSize=15;" parent="1" vertex="1">
          <mxGeometry x="770" y="686.5" width="110" height="100" as="geometry" />
        </mxCell>
        <mxCell id="-DqIj-vR12_YeNa2x4Za-55" value="Rest" style="aspect=fixed;sketch=0;html=1;dashed=0;whitespace=wrap;verticalLabelPosition=bottom;verticalAlign=top;fillColor=#fff2cc;strokeColor=#d6b656;points=[[0.005,0.63,0],[0.1,0.2,0],[0.9,0.2,0],[0.5,0,0],[0.995,0.63,0],[0.72,0.99,0],[0.5,1,0],[0.28,0.99,0]];shape=mxgraph.kubernetes.icon2;kubernetesLabel=1;prIcon=api;gradientColor=#ffd966;" parent="1" vertex="1">
          <mxGeometry x="750" y="740.5" width="50" height="48" as="geometry" />
        </mxCell>
        <mxCell id="sry-SNhyCbIwti_zoIN3-13" value="" style="edgeStyle=orthogonalEdgeStyle;rounded=0;orthogonalLoop=1;jettySize=auto;html=1;" edge="1" parent="1" source="-DqIj-vR12_YeNa2x4Za-56" target="sry-SNhyCbIwti_zoIN3-5">
          <mxGeometry relative="1" as="geometry" />
        </mxCell>
        <mxCell id="-DqIj-vR12_YeNa2x4Za-56" value="ms-usuarios" style="verticalLabelPosition=middle;align=center;labelBackgroundColor=#ffffff;verticalAlign=middle;strokeWidth=2;shadow=0;dashed=0;shape=mxgraph.ios7.icons.cube;fillColor=#d5e8d4;strokeColor=#82b366;gradientColor=#97d077;labelPosition=center;horizontal=1;fontSize=15;" parent="1" vertex="1">
          <mxGeometry x="800" y="139" width="110" height="100" as="geometry" />
        </mxCell>
        <mxCell id="-DqIj-vR12_YeNa2x4Za-57" value="Rest" style="aspect=fixed;sketch=0;html=1;dashed=0;whitespace=wrap;verticalLabelPosition=bottom;verticalAlign=top;fillColor=#fff2cc;strokeColor=#d6b656;points=[[0.005,0.63,0],[0.1,0.2,0],[0.9,0.2,0],[0.5,0,0],[0.995,0.63,0],[0.72,0.99,0],[0.5,1,0],[0.28,0.99,0]];shape=mxgraph.kubernetes.icon2;kubernetesLabel=1;prIcon=api;gradientColor=#ffd966;" parent="1" vertex="1">
          <mxGeometry x="780" y="196" width="50" height="48" as="geometry" />
        </mxCell>
        <mxCell id="sry-SNhyCbIwti_zoIN3-16" value="" style="edgeStyle=orthogonalEdgeStyle;rounded=0;orthogonalLoop=1;jettySize=auto;html=1;" edge="1" parent="1" source="-DqIj-vR12_YeNa2x4Za-58" target="sry-SNhyCbIwti_zoIN3-8">
          <mxGeometry relative="1" as="geometry" />
        </mxCell>
        <mxCell id="-DqIj-vR12_YeNa2x4Za-58" value="ms-pagos" style="verticalLabelPosition=middle;align=center;labelBackgroundColor=#ffffff;verticalAlign=middle;strokeWidth=2;shadow=0;dashed=0;shape=mxgraph.ios7.icons.cube;fillColor=#d5e8d4;strokeColor=#82b366;gradientColor=#97d077;labelPosition=center;horizontal=1;fontSize=15;" parent="1" vertex="1">
          <mxGeometry x="804" y="552" width="110" height="100" as="geometry" />
        </mxCell>
        <mxCell id="-DqIj-vR12_YeNa2x4Za-59" value="Rest" style="aspect=fixed;sketch=0;html=1;dashed=0;whitespace=wrap;verticalLabelPosition=bottom;verticalAlign=top;fillColor=#fff2cc;strokeColor=#d6b656;points=[[0.005,0.63,0],[0.1,0.2,0],[0.9,0.2,0],[0.5,0,0],[0.995,0.63,0],[0.72,0.99,0],[0.5,1,0],[0.28,0.99,0]];shape=mxgraph.kubernetes.icon2;kubernetesLabel=1;prIcon=api;gradientColor=#ffd966;" parent="1" vertex="1">
          <mxGeometry x="784" y="606" width="50" height="48" as="geometry" />
        </mxCell>
        <mxCell id="sry-SNhyCbIwti_zoIN3-15" value="" style="edgeStyle=orthogonalEdgeStyle;rounded=0;orthogonalLoop=1;jettySize=auto;html=1;" edge="1" parent="1" source="-DqIj-vR12_YeNa2x4Za-60" target="sry-SNhyCbIwti_zoIN3-7">
          <mxGeometry relative="1" as="geometry" />
        </mxCell>
        <mxCell id="-DqIj-vR12_YeNa2x4Za-60" value="ms-pedidos" style="verticalLabelPosition=middle;align=center;labelBackgroundColor=#ffffff;verticalAlign=middle;strokeWidth=2;shadow=0;dashed=0;shape=mxgraph.ios7.icons.cube;fillColor=#d5e8d4;strokeColor=#82b366;gradientColor=#97d077;labelPosition=center;horizontal=1;fontSize=15;" parent="1" vertex="1">
          <mxGeometry x="800" y="419" width="110" height="100" as="geometry" />
        </mxCell>
        <mxCell id="-DqIj-vR12_YeNa2x4Za-61" value="Rest" style="aspect=fixed;sketch=0;html=1;dashed=0;whitespace=wrap;verticalLabelPosition=bottom;verticalAlign=top;fillColor=#fff2cc;strokeColor=#d6b656;points=[[0.005,0.63,0],[0.1,0.2,0],[0.9,0.2,0],[0.5,0,0],[0.995,0.63,0],[0.72,0.99,0],[0.5,1,0],[0.28,0.99,0]];shape=mxgraph.kubernetes.icon2;kubernetesLabel=1;prIcon=api;gradientColor=#ffd966;" parent="1" vertex="1">
          <mxGeometry x="780" y="475" width="50" height="48" as="geometry" />
        </mxCell>
        <mxCell id="-DqIj-vR12_YeNa2x4Za-63" value="" style="endArrow=classic;startArrow=classic;html=1;rounded=0;exitX=0.967;exitY=0.239;exitDx=0;exitDy=0;exitPerimeter=0;entryX=0.407;entryY=0.66;entryDx=0;entryDy=0;entryPerimeter=0;" parent="1" source="-DqIj-vR12_YeNa2x4Za-31" target="-DqIj-vR12_YeNa2x4Za-57" edge="1">
          <mxGeometry width="50" height="50" relative="1" as="geometry">
            <mxPoint x="489.75" y="441" as="sourcePoint" />
            <mxPoint x="539.75" y="391" as="targetPoint" />
          </mxGeometry>
        </mxCell>
        <mxCell id="sry-SNhyCbIwti_zoIN3-1" value="" style="endArrow=classic;startArrow=classic;html=1;rounded=0;exitX=0.1;exitY=0.2;exitDx=0;exitDy=0;exitPerimeter=0;" edge="1" parent="1" source="-DqIj-vR12_YeNa2x4Za-55" target="-DqIj-vR12_YeNa2x4Za-31">
          <mxGeometry width="50" height="50" relative="1" as="geometry">
            <mxPoint x="369.75" y="733" as="sourcePoint" />
            <mxPoint x="553.75" y="651" as="targetPoint" />
          </mxGeometry>
        </mxCell>
        <mxCell id="sry-SNhyCbIwti_zoIN3-2" value="" style="endArrow=classic;startArrow=classic;html=1;rounded=0;exitX=1.009;exitY=0.645;exitDx=0;exitDy=0;exitPerimeter=0;" edge="1" parent="1" source="-DqIj-vR12_YeNa2x4Za-31" target="-DqIj-vR12_YeNa2x4Za-51">
          <mxGeometry width="50" height="50" relative="1" as="geometry">
            <mxPoint x="429.75" y="441" as="sourcePoint" />
            <mxPoint x="613.75" y="359" as="targetPoint" />
          </mxGeometry>
        </mxCell>
        <mxCell id="sry-SNhyCbIwti_zoIN3-3" value="" style="endArrow=classic;startArrow=classic;html=1;rounded=0;exitX=0.966;exitY=0.751;exitDx=0;exitDy=0;exitPerimeter=0;entryX=0.1;entryY=0.2;entryDx=0;entryDy=0;entryPerimeter=0;" edge="1" parent="1" source="-DqIj-vR12_YeNa2x4Za-31" target="-DqIj-vR12_YeNa2x4Za-61">
          <mxGeometry width="50" height="50" relative="1" as="geometry">
            <mxPoint x="384.75" y="715" as="sourcePoint" />
            <mxPoint x="568.75" y="633" as="targetPoint" />
          </mxGeometry>
        </mxCell>
        <mxCell id="sry-SNhyCbIwti_zoIN3-4" value="" style="endArrow=classic;startArrow=classic;html=1;rounded=0;entryX=0.005;entryY=0.63;entryDx=0;entryDy=0;entryPerimeter=0;exitX=0.851;exitY=0.851;exitDx=0;exitDy=0;exitPerimeter=0;" edge="1" parent="1" source="-DqIj-vR12_YeNa2x4Za-37" target="-DqIj-vR12_YeNa2x4Za-55">
          <mxGeometry width="50" height="50" relative="1" as="geometry">
            <mxPoint x="362.75" y="733" as="sourcePoint" />
            <mxPoint x="546.75" y="651" as="targetPoint" />
          </mxGeometry>
        </mxCell>
        <mxCell id="sry-SNhyCbIwti_zoIN3-10" value="" style="endArrow=classic;startArrow=classic;html=1;rounded=0;exitX=0.1;exitY=0.2;exitDx=0;exitDy=0;exitPerimeter=0;entryX=1;entryY=1;entryDx=0;entryDy=0;" edge="1" parent="1" source="-DqIj-vR12_YeNa2x4Za-59" target="-DqIj-vR12_YeNa2x4Za-31">
          <mxGeometry width="50" height="50" relative="1" as="geometry">
            <mxPoint x="703.75" y="667" as="sourcePoint" />
            <mxPoint x="496.75" y="302" as="targetPoint" />
          </mxGeometry>
        </mxCell>
        <mxCell id="sry-SNhyCbIwti_zoIN3-5" value="usuarios DBB" style="image;html=1;image=img/lib/clip_art/computers/Database_Move_Stack_128x128.png" vertex="1" parent="1">
          <mxGeometry x="1028" y="149" width="80" height="80" as="geometry" />
        </mxCell>
        <mxCell id="sry-SNhyCbIwti_zoIN3-6" value="inventario DBB" style="image;html=1;image=img/lib/clip_art/computers/Database_Move_Stack_128x128.png" vertex="1" parent="1">
          <mxGeometry x="1028" y="285" width="80" height="80" as="geometry" />
        </mxCell>
        <mxCell id="sry-SNhyCbIwti_zoIN3-7" value="pedidos DBB" style="image;html=1;image=img/lib/clip_art/computers/Database_Move_Stack_128x128.png" vertex="1" parent="1">
          <mxGeometry x="1028" y="429" width="80" height="80" as="geometry" />
        </mxCell>
        <mxCell id="sry-SNhyCbIwti_zoIN3-8" value="pagos DBB" style="image;html=1;image=img/lib/clip_art/computers/Database_Move_Stack_128x128.png" vertex="1" parent="1">
          <mxGeometry x="1028" y="563" width="80" height="80" as="geometry" />
        </mxCell>
        <mxCell id="sry-SNhyCbIwti_zoIN3-9" value="ventas DBB" style="image;html=1;image=img/lib/clip_art/computers/Database_Move_Stack_128x128.png" vertex="1" parent="1">
          <mxGeometry x="1028" y="697" width="80" height="80" as="geometry" />
        </mxCell>
        <mxCell id="sry-SNhyCbIwti_zoIN3-18" value="" style="image;sketch=0;aspect=fixed;html=1;points=[];align=center;fontSize=12;image=img/lib/mscae/Docker.svg;" vertex="1" parent="1">
          <mxGeometry x="860" y="207" width="50" height="41" as="geometry" />
        </mxCell>
        <mxCell id="sry-SNhyCbIwti_zoIN3-20" value="" style="image;sketch=0;aspect=fixed;html=1;points=[];align=center;fontSize=12;image=img/lib/mscae/Docker.svg;" vertex="1" parent="1">
          <mxGeometry x="860" y="342" width="50" height="41" as="geometry" />
        </mxCell>
        <mxCell id="sry-SNhyCbIwti_zoIN3-21" value="" style="image;sketch=0;aspect=fixed;html=1;points=[];align=center;fontSize=12;image=img/lib/mscae/Docker.svg;" vertex="1" parent="1">
          <mxGeometry x="860" y="487" width="50" height="41" as="geometry" />
        </mxCell>
        <mxCell id="sry-SNhyCbIwti_zoIN3-23" value="" style="image;sketch=0;aspect=fixed;html=1;points=[];align=center;fontSize=12;image=img/lib/mscae/Docker.svg;" vertex="1" parent="1">
          <mxGeometry x="864" y="619" width="50" height="41" as="geometry" />
        </mxCell>
        <mxCell id="sry-SNhyCbIwti_zoIN3-24" value="" style="image;sketch=0;aspect=fixed;html=1;points=[];align=center;fontSize=12;image=img/lib/mscae/Docker.svg;" vertex="1" parent="1">
          <mxGeometry x="830" y="754.5" width="50" height="41" as="geometry" />
        </mxCell>
        <mxCell id="sry-SNhyCbIwti_zoIN3-51" value="&lt;div&gt;ComunicaciÃ³n entre Microservicios**&lt;/div&gt;&lt;div&gt;&lt;span style=&quot;background-color: transparent; color: light-dark(rgb(0, 0, 0), rgb(255, 255, 255));&quot;&gt;**SÃ­ncrona**: APIs REST para consultas y operaciones directas.&lt;/span&gt;&lt;/div&gt;&lt;div&gt;- **AsÃ­ncrona**: Para eventos de stock, pagos y actualizaciones de pedidos.&lt;/div&gt;&lt;div&gt;- **API Gateway**: Centraliza las solicitudes y aplica autenticaciÃ³n.&lt;/div&gt;" style="shape=note;size=20;whiteSpace=wrap;html=1;align=left;" vertex="1" parent="1">
          <mxGeometry x="162" y="630" width="410" height="105.5" as="geometry" />
        </mxCell>
        <mxCell id="sry-SNhyCbIwti_zoIN3-54" value="" style="endArrow=classic;startArrow=classic;html=1;rounded=0;exitX=0.623;exitY=-0.014;exitDx=0;exitDy=0;exitPerimeter=0;entryX=0.28;entryY=0.99;entryDx=0;entryDy=0;entryPerimeter=0;" edge="1" parent="1" source="-DqIj-vR12_YeNa2x4Za-37" target="-DqIj-vR12_YeNa2x4Za-57">
          <mxGeometry width="50" height="50" relative="1" as="geometry">
            <mxPoint x="460" y="448" as="sourcePoint" />
            <mxPoint x="754" y="400" as="targetPoint" />
          </mxGeometry>
        </mxCell>
        <mxCell id="sry-SNhyCbIwti_zoIN3-55" value="" style="endArrow=classic;startArrow=classic;html=1;rounded=0;exitX=0.824;exitY=0.161;exitDx=0;exitDy=0;exitPerimeter=0;" edge="1" parent="1" source="-DqIj-vR12_YeNa2x4Za-37" target="-DqIj-vR12_YeNa2x4Za-51">
          <mxGeometry width="50" height="50" relative="1" as="geometry">
            <mxPoint x="526" y="296" as="sourcePoint" />
            <mxPoint x="820" y="248" as="targetPoint" />
          </mxGeometry>
        </mxCell>
        <mxCell id="sry-SNhyCbIwti_zoIN3-56" value="" style="endArrow=classic;startArrow=classic;html=1;rounded=0;exitX=0.96;exitY=0.367;exitDx=0;exitDy=0;exitPerimeter=0;entryX=0.28;entryY=0.99;entryDx=0;entryDy=0;entryPerimeter=0;" edge="1" parent="1" source="-DqIj-vR12_YeNa2x4Za-37" target="-DqIj-vR12_YeNa2x4Za-61">
          <mxGeometry width="50" height="50" relative="1" as="geometry">
            <mxPoint x="536" y="306" as="sourcePoint" />
            <mxPoint x="830" y="258" as="targetPoint" />
          </mxGeometry>
        </mxCell>
        <mxCell id="sry-SNhyCbIwti_zoIN3-58" value="" style="endArrow=classic;startArrow=classic;html=1;rounded=0;exitX=0.986;exitY=0.574;exitDx=0;exitDy=0;exitPerimeter=0;entryX=0.005;entryY=0.63;entryDx=0;entryDy=0;entryPerimeter=0;" edge="1" parent="1" source="-DqIj-vR12_YeNa2x4Za-37" target="-DqIj-vR12_YeNa2x4Za-59">
          <mxGeometry width="50" height="50" relative="1" as="geometry">
            <mxPoint x="279.79" y="691" as="sourcePoint" />
            <mxPoint x="573.79" y="643" as="targetPoint" />
          </mxGeometry>
        </mxCell>
        <mxCell id="sry-SNhyCbIwti_zoIN3-60" style="edgeStyle=orthogonalEdgeStyle;rounded=0;orthogonalLoop=1;jettySize=auto;html=1;" edge="1" parent="1" source="-DqIj-vR12_YeNa2x4Za-13">
          <mxGeometry relative="1" as="geometry">
            <mxPoint x="400" y="226" as="targetPoint" />
          </mxGeometry>
        </mxCell>
        <mxCell id="sry-SNhyCbIwti_zoIN3-61" value="INTERNET" style="image;aspect=fixed;perimeter=ellipsePerimeter;html=1;align=center;shadow=0;dashed=0;spacingTop=3;image=img/lib/active_directory/internet_cloud.svg;verticalAlign=middle;labelPosition=center;verticalLabelPosition=middle;" vertex="1" parent="1">
          <mxGeometry x="97" y="130" width="95.24" height="60" as="geometry" />
        </mxCell>
      </root>
    </mxGraphModel>
  </diagram>
</mxfile>
